%
M48
M72
T01C0.02362
T02C0.03150
T03C0.03200
T04C0.03937
T05C0.04000
T06C0.07480
%
T01
X16800Y54300
X26800Y81800
X29300Y89300
X24300Y94300
X14300Y111800
X19300Y121800
X14300Y141800
X56800Y116800
X61800Y121800
X56800Y106800
X96800Y71800
X124300Y84300
X146800Y84300
X99300Y136800
X94300Y151800
X94300Y166800
X109300Y176800
X124300Y171800
X66800Y161800
X96800Y29300
X124300Y16800
T02
X32154Y18650
X36879Y15501
X36879Y21800
X32154Y24950
X36879Y28099
X61426Y181800
X69300Y181800
X77174Y181800
T03
X34300Y186800
X34300Y146800
X41800Y139300
X56800Y139300
X66800Y139300
X81800Y141800
X81800Y131800
X81800Y121800
X81800Y111800
X81800Y101800
X81800Y91800
X81800Y81800
X81800Y71800
X81800Y61800
X81800Y51800
X81800Y41800
X81800Y31800
X81800Y21800
X81800Y11800
X111800Y11800
X111800Y21800
X111800Y31800
X111800Y41800
X111800Y51800
X111800Y61800
X111800Y71800
X111800Y81800
X111800Y91800
X111800Y101800
X111800Y111800
X111800Y121800
X111800Y131800
X111800Y141800
X111800Y156800
X119300Y161800
X111800Y166800
X136800Y141800
X146800Y141800
X164300Y136800
X164300Y146800
X154300Y161800
X144300Y161800
X184300Y146800
X176800Y119300
X164300Y91800
X154300Y91800
X141800Y76800
X131800Y76800
X136800Y119300
X184300Y186800
X44300Y76800
X34300Y76800
X34300Y54300
X44300Y54300
X41800Y99300
T04
X53552Y181800
X85048Y181800
T05
X6800Y186800
X6800Y176800
X6800Y166800
X6800Y156800
X6800Y146800
X6800Y136800
X6800Y126800
X6800Y116800
X6800Y106800
X6800Y96800
X6800Y86800
X6800Y76800
X6800Y66800
X64300Y64300
X64300Y54300
X64300Y44300
X194300Y66800
X194300Y76800
X194300Y86800
X194300Y96800
X194300Y106800
X194300Y116800
X194300Y126800
X194300Y136800
X156800Y186800
X146800Y186800
X136800Y186800
X126800Y186800
X116800Y186800
X106800Y186800
T06
X16800Y36170
X16800Y7430
M30
